<svg id="Layer_1" xmlns="http://www.w3.org/2000/svg" viewBox="0 0 51 55"><style>.st0{opacity:0.32;} .st1{fill:#00A99D;} .st2{fill:#FFFFFF;}</style><g id="Layer_2" class="st0"><ellipse id="XMLID_1_" class="st1" cx="25.5" cy="29.2" rx="25.5" ry="25.5"/></g><g id="Layer_1_1_"><path id="XMLID_103_" class="st2" d="M29.5 47.4c-.4 1.9-.9 3.7-1.5 5.6-.1.5-.3 1.1-.6 1.5-.3.4-.9.7-1.4.4-.3-.2-.6-.5-.6-.9-.1-.4 0-.8 0-1.2.3-2.5 1.1-4.9 1.7-7.3v-.3c-.7-.9-1.6-1.9-2.3-2.7-.2-.2-.4-.4-.5-.6-.2-.2-.6-.6-.8-.9 0 0-.5.7-.7 1-1 1.4-2.3 2.6-3.7 3.4-1.5.9-3.2 1.4-5 1.4-.8 0-1.7-.1-2.5-.4-2-.6-3.8-2.2-4.7-4.2-.6-1.4-.8-3-.8-4.5s.2-3.1.8-4.5c.8-1.8 2.2-3.2 3.8-4.2 1-.6 2.2-.9 3.3-1.1 1.7-.3 3.3-.1 5 .6.9.4 1.7.9 2.4 1.6.4.3.7.6 1.1 1 .6.6.9.9.9 1 .1-.2.2-.4.2-.6.7-1.8 1.5-3.5 2.1-5.3 1.2-3.2 2.4-6.5 3.5-9.8.9-2.5 1.7-5.1 2.4-7.7.5-1.9 1-3.9 1.3-5.8.1-.9.8-1.1 1.3-1.3C36 .8 37.9 0 39.9 0c.3 0 .7 0 .9.2.1.1.3.6.2.8-.2 1.2-.5 2.4-.8 3.6-.5 1.9-1 3.7-1.5 5.6-.6 2.3-1.2 4.7-1.8 7-.5 2.1-1 4.2-1.5 6.2-.5 2.3-1.1 4.5-1.7 6.8-.5 2.1-1.2 4.2-1.7 6.4-.4 1.5-.8 3-1.1 4.6 0 .1-.1.3-.1.3.6.7 1.2 1.3 1.6 1.7.6.7 1.4 1.4 2.1 2 1.3 1.1 1.4 1.1 2.4 1.9 1.4 1 2.2.9 2.6.2.5-.9.2-1.9.1-2.4-.1-.4.6.2 1.2 2.2.4 1.2.1 2.9-.4 3.9-1.1 2-3.5 2.6-5.4 1.3-2.2-1.5-3.4-2.9-5.5-4.9zm1.8-23.7c-.1.2-.2.4-.2.6-.7 1.7-1.3 3.4-2.1 5.1-.5 1.2-1 2.4-1.6 3.5-.3.6-.5 1.2-.8 1.8-.2.4-.4.9-.4.9.1.2.6.8 1 1.2.6.7 1 1.2 1.6 1.9 0 0 .1-.6.1-.7.2-1.3.4-2.5.6-3.8.3-1.4.5-2.9.8-4.3.3-2.1.7-4.1 1-6.2.1-.1.1-.1.1-.2-.1.1-.1.1-.1.2zM15 33.7h-.4c-.9.1-1.8.5-2.5 1.2s-1.3 1.5-1.6 2.5c-.3 1.1-.2 2.4.3 3.4s1.5 1.8 2.5 2c1.2.3 2.5-.1 3.6-.9.9-.7 2-1.6 2.8-2.5.4-.4.9-1.2 1.2-1.8l-.6-.8c-.4-.6-1.1-1.2-1.5-1.6-1.1-.8-2.4-1.5-3.8-1.5z"/></g></svg>