<svg id="Layer_4_copy" xmlns="http://www.w3.org/2000/svg" viewBox="0 0 275.1 110.7"><style>.st0{fill:#FFFFFF;}</style><path class="st0" d="M29.1 41.5c2.3-.9 4-1.4 4.5-1.5 1.7-.3 3-1.7 3-3.5 0-1.9-1.6-3.5-3.5-3.5-.6 0-4.8 1.1-9.9 3.4-3.9-3.1-6.7-6-6.7-11.6C16.3 17.5 23.2 7 35.6 7c2.6 0 5.2.6 5.2 1.8 0 3.9-12.4 10.2-15.7 10.8-1.8.1-3.3 1.6-3.3 3.5s1.6 3.5 3.5 3.5c2.7 0 22.5-7.5 22.5-17.8 0-4.2-3.2-8.8-12.2-8.8C23.2 0 9.3 10.2 9.3 24.8c0 7.2 3.3 11.7 7 15C8.1 44.6 0 51.8 0 61.5c0 8.9 6.7 14.1 13.1 14.1 6.3 0 12-2.3 16-6.6 3.6-3.8 5.7-9 5.7-14.3 0-6-2.6-10.1-5.7-13.2zm-16 27.1c-2.4 0-6.1-1.9-6.1-7.1 0-6.5 6.6-11.8 12.1-15.1 1-.6 2.1-1.2 3.1-1.7 3.6 3 5.7 5.6 5.7 10.2-.1 6.6-5.2 13.7-14.8 13.7z"/><path class="st0" d="M74.8 53.3c3.1-5.2 4-11 2.7-14.1-.8-1.8-2.4-2.9-4.3-2.9-6.1 0-12.8 8.7-14.7 11.3-1.1 1.5-2.8 4.2-4.4 7.4 0 .1-.1.1-.1.2-1.7 3.3-7.5 12.4-13.2 13.3.1-8.9 9.8-22.1 13.5-26.4 1.3-1.5 1.1-3.7-.4-4.9-1.5-1.3-3.7-1.1-4.9.4-.6.7-15.2 17.8-15.2 31.1 0 4 2.6 6.9 6 6.9 3.7 0 7.3-1.6 10.9-4.7.8 2.8 3 4.7 5.7 4.7 3.1 0 6.2-1.1 9.3-3.4-1.3 3.2-2.9 6.8-4.7 10.3-7.1 13.6-14.7 21-21.4 21-1.7 0-3-1.1-3-2.5 0-6.3 11-11.1 14.8-12.2 1.9-.6 2.9-2.5 2.3-4.4-.6-1.9-2.5-2.9-4.4-2.3-.2.1-4.8 1.5-9.4 4.3-8.5 5.1-10.3 10.8-10.3 14.7 0 5.4 4.4 9.5 10 9.5 22.6 0 38-47.1 38-53.8 0-1.7-1.2-3.1-2.8-3.5zM57.4 68.5c0-3.2 1.1-6.6 2.7-9.9.1-.1.1-.2.1-.2s0-.1.1-.1c2.9-6 7.5-11.5 10.6-13.8-.4 2.2-1.7 5.4-4.3 8.2-1.3 1.4-1.2 3.6.2 4.9.5.5 1.1.8 1.8.9-2.6 3.9-6.9 9.3-11.2 10zM191.3 53.5c3.1-5.2 4-11 2.7-14.1-.8-1.8-2.4-2.9-4.3-2.9-6.1 0-12.8 8.7-14.7 11.3-.8 1.1-1.9 2.8-3.1 4.8-.1.1-.1.2-.2.2-4.3 6.2-12.2 14.8-17.6 15.8.1-8.7 12.3-21.8 17-26.2l.3-.3.2-.2c.1-.1.1-.2.2-.3 0-.1.1-.2.1-.3 0-.1.1-.2.1-.3 0-.1.1-.2.1-.3v-.3-.4-.1-.2-.4c0-.1-.1-.2-.1-.3 0-.1-.1-.2-.1-.3 0-.1-.1-.2-.2-.3 0-.1-.1-.2-.1-.3-.1-.1-.2-.2-.2-.3 0-.1-.1-.1-.1-.2l-.3-.3-.2-.2c-.1-.1-.2-.1-.3-.2-.1 0-.2-.1-.3-.1-.1 0-.2-.1-.3-.1-.1 0-.2-.1-.3-.1h-.7-.5-.1c-5.7.5-14.6 8.1-26.7 20.7V57c3.8-6 8.4-11.7 10.9-14.5 1.3-1.4 1.2-3.7-.3-4.9-1.4-1.3-3.7-1.2-4.9.3-1.4 1.6-10.6 12.1-15.6 22.7-2.6 3.6-6.2 7.4-9.8 8 .1-8.9 9.8-22.1 13.5-26.4 1.3-1.5 1.1-3.7-.4-4.9-1.5-1.3-3.7-1.1-4.9.4-.4.4-5.6 6.5-9.8 14.2-4.7 6.6-13.2 15.8-18.6 16.8.1-8.7 12.3-21.8 17-26.2l.3-.3.2-.2c.1-.1.1-.2.2-.3 0-.1.1-.2.1-.3 0-.1.1-.2.1-.3 0-.1.1-.2.1-.3v-.3-.4-.1-.2-.4c0-.1-.1-.2-.1-.3 0-.1-.1-.2-.1-.3 0-.1-.1-.2-.2-.3 0-.1-.1-.2-.1-.3-.1-.1-.2-.2-.2-.3 0-.1-.1-.1-.1-.2l-.3-.3-.2-.2c-.1-.1-.2-.1-.3-.2-.1-.1-.2-.1-.3-.2-.1 0-.2-.1-.3-.1-.1 0-.2-.1-.3-.1h-.7-.5-.1c-5.8.5-14.8 8.3-27.1 21.1 3.9-6.3 8.7-12.3 11.3-15.1 1.3-1.4 1.2-3.7-.3-4.9-1.4-1.3-3.7-1.2-4.9.3-1.9 2.1-18.8 21.4-18.8 34.5 0 1.4.9 2.8 2.2 3.3.5.2.9.3 1.3.3 1.6 0 2.7-1.2 3.9-2.4.8-.9 2-2.1 3.4-3.6 4.1-4.4 7.7-8.1 10.7-11.2-1.8 3.7-2.7 7.1-2.7 10.2 0 4 2.6 6.9 6 6.9 4.7 0 9.8-3.3 14.1-7.2v.3c0 4 2.6 6.9 6 6.9 2.6 0 5.2-.8 7.7-2.4.3 1.1 1.1 1.9 2.1 2.4.5.2.9.3 1.3.3 1.6 0 2.7-1.2 3.9-2.4.8-.9 2-2.1 3.4-3.6 4.1-4.4 7.7-8.1 10.7-11.2-1.8 3.7-2.7 7.1-2.7 10.2 0 4 2.6 6.9 6 6.9 4.7 0 9.6-3.1 13.8-6.8.1 3.9 2.6 6.8 6 6.8 3.1 0 6.2-1.1 9.3-3.4-1.3 3.2-2.9 6.8-4.7 10.3-7.1 13.6-14.7 21-21.4 21-1.7 0-3-1.1-3-2.5 0-6.3 11-11.1 14.8-12.2 1.9-.6 2.9-2.5 2.3-4.4-.6-1.9-2.5-2.9-4.4-2.3-.2.1-4.8 1.5-9.4 4.3-8.5 5.1-10.3 10.8-10.3 14.7 0 5.4 4.4 9.5 10 9.5 22.6 0 38-47.1 38-53.8-.3-2.2-1.5-3.6-3.1-3.9zm-17.4 15.2c.1-9.1 8.6-20.5 13.5-24.1-.4 2.2-1.7 5.4-4.3 8.2-1.3 1.4-1.2 3.6.2 4.9.5.5 1.2.8 1.8.9-2.6 4-6.9 9.4-11.2 10.1z"/><ellipse transform="rotate(125.916 58.486 29)" class="st0" cx="58.5" cy="29" rx="5.1" ry="3.9"/><ellipse transform="rotate(125.916 138.985 29)" class="st0" cx="139" cy="29" rx="5.1" ry="3.9"/><g><path class="st0" d="M211.7 65c.6 1.5 1.5 2.7 2.6 3.8 1.1 1.1 2.4 1.9 3.8 2.6s3 .9 4.7.9c1.7 0 3.2-.3 4.7-.9 1.5-.6 2.7-1.5 3.8-2.6 1.1-1.1 1.9-2.4 2.6-3.8s.9-3 .9-4.7v-24h2.4v24c0 2-.4 3.9-1.1 5.6-.8 1.8-1.8 3.3-3.1 4.6-1.3 1.3-2.8 2.3-4.6 3.1s-3.6 1.1-5.6 1.1c-2 0-3.9-.4-5.6-1.1-1.8-.8-3.3-1.8-4.6-3.1s-2.3-2.8-3.1-4.6c-.8-1.8-1.1-3.6-1.1-5.6v-24h2.4v24c0 1.7.3 3.2.9 4.7zM246.3 36.3h18.6c1.4 0 2.7.3 4 .8 1.2.5 2.3 1.3 3.3 2.2.9.9 1.7 2 2.2 3.3.5 1.2.8 2.6.8 4s-.3 2.7-.8 4c-.5 1.2-1.3 2.3-2.2 3.2-.9.9-2 1.6-3.3 2.2s-2.6.8-4 .8h-16.2v18h-2.4V36.3zm2.4 2.4v15.6h16.2c1.1 0 2.1-.2 3-.6.9-.4 1.8-1 2.5-1.7s1.3-1.5 1.7-2.5c.4-.9.6-2 .6-3s-.2-2.1-.6-3c-.4-.9-1-1.8-1.7-2.5s-1.5-1.3-2.5-1.7c-.9-.4-2-.6-3-.6h-16.2z"/></g></svg>