<?xml version="1.0" encoding="utf-8"?>
<!-- Generator: Adobe Illustrator 19.1.0, SVG Export Plug-In . SVG Version: 6.00 Build 0)  -->
<svg version="1.1" id="Layer_1" xmlns="http://www.w3.org/2000/svg" xmlns:xlink="http://www.w3.org/1999/xlink" x="0px" y="0px"
	 viewBox="0 0 51 55" style="enable-background:new 0 0 51 55;" xml:space="preserve">
<style type="text/css">
	.st0{opacity:0.32;}
	.st1{fill:#00A99D;}
	.st2{fill:#FFFFFF;}
</style>
<g id="Layer_2" class="st0">
	<ellipse id="XMLID_1_" class="st1" cx="25.5" cy="29.2" rx="25.5" ry="25.5"/>
</g>
<g id="Layer_1_1_">
	<path id="XMLID_103_" class="st2" d="M29.5,47.4c-0.4,1.9-0.9,3.7-1.5,5.6c-0.1,0.5-0.3,1.1-0.6,1.5c-0.3,0.4-0.9,0.7-1.4,0.4
		c-0.3-0.2-0.6-0.5-0.6-0.9c-0.1-0.4,0-0.8,0-1.2c0.3-2.5,1.1-4.9,1.7-7.3c0-0.1,0-0.3,0-0.3c-0.7-0.9-1.6-1.9-2.3-2.7
		c-0.2-0.2-0.4-0.4-0.5-0.6c-0.2-0.2-0.6-0.6-0.8-0.9c0,0-0.5,0.7-0.7,1c-1,1.4-2.3,2.6-3.7,3.4c-1.5,0.9-3.2,1.4-5,1.4
		c-0.8,0-1.7-0.1-2.5-0.4c-2-0.6-3.8-2.2-4.7-4.2c-0.6-1.4-0.8-3-0.8-4.5c0-1.5,0.2-3.1,0.8-4.5c0.8-1.8,2.2-3.2,3.8-4.2
		c1-0.6,2.2-0.9,3.3-1.1c1.7-0.3,3.3-0.1,5,0.6c0.9,0.4,1.7,0.9,2.4,1.6c0.4,0.3,0.7,0.6,1.1,1c0.6,0.6,0.9,0.9,0.9,1
		c0.1-0.2,0.2-0.4,0.2-0.6c0.7-1.8,1.5-3.5,2.1-5.3c1.2-3.2,2.4-6.5,3.5-9.8c0.9-2.5,1.7-5.1,2.4-7.7c0.5-1.9,1-3.9,1.3-5.8
		c0.1-0.9,0.8-1.1,1.3-1.3C36,0.8,37.9,0,39.9,0c0.3,0,0.7,0,0.9,0.2C40.9,0.3,41.1,0.8,41,1c-0.2,1.2-0.5,2.4-0.8,3.6
		c-0.5,1.9-1,3.7-1.5,5.6c-0.6,2.3-1.2,4.7-1.8,7c-0.5,2.1-1,4.2-1.5,6.2c-0.5,2.3-1.1,4.5-1.7,6.8c-0.5,2.1-1.2,4.2-1.7,6.4
		c-0.4,1.5-0.8,3-1.1,4.6c0,0.1-0.1,0.3-0.1,0.3c0.6,0.7,1.2,1.3,1.6,1.7c0.6,0.7,1.4,1.4,2.1,2c1.3,1.1,1.4,1.1,2.4,1.9
		c1.4,1,2.2,0.9,2.6,0.2c0.5-0.9,0.2-1.9,0.1-2.4c-0.1-0.4,0.6,0.2,1.2,2.2c0.4,1.2,0.1,2.9-0.4,3.9c-1.1,2-3.5,2.6-5.4,1.3
		C32.8,50.8,31.6,49.4,29.5,47.4z M31.3,23.7c-0.1,0.2-0.2,0.4-0.2,0.6c-0.7,1.7-1.3,3.4-2.1,5.1c-0.5,1.2-1,2.4-1.6,3.5
		c-0.3,0.6-0.5,1.2-0.8,1.8c-0.2,0.4-0.4,0.9-0.4,0.9c0.1,0.2,0.6,0.8,1,1.2c0.6,0.7,1,1.2,1.6,1.9c0,0,0.1-0.6,0.1-0.7
		c0.2-1.3,0.4-2.5,0.6-3.8c0.3-1.4,0.5-2.9,0.8-4.3C30.6,27.8,31,25.8,31.3,23.7c0.1-0.1,0.1-0.1,0.1-0.2
		C31.3,23.6,31.3,23.6,31.3,23.7z M15,33.7c-0.1,0-0.3,0-0.4,0c-0.9,0.1-1.8,0.5-2.5,1.2c-0.7,0.7-1.3,1.5-1.6,2.5
		c-0.3,1.1-0.2,2.4,0.3,3.4c0.5,1,1.5,1.8,2.5,2c1.2,0.3,2.5-0.1,3.6-0.9c0.9-0.7,2-1.6,2.8-2.5c0.4-0.4,0.9-1.2,1.2-1.8
		c0,0-0.3-0.4-0.6-0.8c-0.4-0.6-1.1-1.2-1.5-1.6C17.7,34.4,16.4,33.7,15,33.7z"/>
</g>
</svg>
