<?xml version="1.0" encoding="utf-8"?>
<!-- Generator: Adobe Illustrator 19.1.0, SVG Export Plug-In . SVG Version: 6.00 Build 0)  -->
<svg version="1.1" id="Layer_4_copy" xmlns="http://www.w3.org/2000/svg" xmlns:xlink="http://www.w3.org/1999/xlink" x="0px"
	 y="0px" viewBox="0 0 275.1 110.7" style="enable-background:new 0 0 275.1 110.7;" xml:space="preserve">
<style type="text/css">
	.st0{fill:#FFFFFF;}
</style>
<g>
	<path class="st0" d="M29.1,41.5c2.3-0.9,4-1.4,4.5-1.5c1.7-0.3,3-1.7,3-3.5c0-1.9-1.6-3.5-3.5-3.5c-0.6,0-4.8,1.1-9.9,3.4
		c-3.9-3.1-6.7-6-6.7-11.6C16.3,17.5,23.2,7,35.6,7c2.6,0,5.2,0.6,5.2,1.8c0,3.9-12.4,10.2-15.7,10.8c-1.8,0.1-3.3,1.6-3.3,3.5
		c0,1.9,1.6,3.5,3.5,3.5c2.7,0,22.5-7.5,22.5-17.8c0-4.2-3.2-8.8-12.2-8.8C23.2,0,9.3,10.2,9.3,24.8c0,7.2,3.3,11.7,7,15
		C8.1,44.6,0,51.8,0,61.5c0,8.9,6.7,14.1,13.1,14.1c6.3,0,12-2.3,16-6.6c3.6-3.8,5.7-9,5.7-14.3C34.8,48.7,32.2,44.6,29.1,41.5z
		 M13.1,68.6c-2.4,0-6.1-1.9-6.1-7.1c0-6.5,6.6-11.8,12.1-15.1c1-0.6,2.1-1.2,3.1-1.7c3.6,3,5.7,5.6,5.7,10.2
		C27.8,61.5,22.7,68.6,13.1,68.6z"/>
	<path class="st0" d="M74.8,53.3c3.1-5.2,4-11,2.7-14.1c-0.8-1.8-2.4-2.9-4.3-2.9c-6.1,0-12.8,8.7-14.7,11.3
		c-1.1,1.5-2.8,4.2-4.4,7.4c0,0.1-0.1,0.1-0.1,0.2c-1.7,3.3-7.5,12.4-13.2,13.3c0.1-8.9,9.8-22.1,13.5-26.4c1.3-1.5,1.1-3.7-0.4-4.9
		c-1.5-1.3-3.7-1.1-4.9,0.4c-0.6,0.7-15.2,17.8-15.2,31.1c0,4,2.6,6.9,6,6.9c3.7,0,7.3-1.6,10.9-4.7c0.8,2.8,3,4.7,5.7,4.7
		c3.1,0,6.2-1.1,9.3-3.4c-1.3,3.2-2.9,6.8-4.7,10.3c-7.1,13.6-14.7,21-21.4,21c-1.7,0-3-1.1-3-2.5c0-6.3,11-11.1,14.8-12.2
		c1.9-0.6,2.9-2.5,2.3-4.4c-0.6-1.9-2.5-2.9-4.4-2.3c-0.2,0.1-4.8,1.5-9.4,4.3c-8.5,5.1-10.3,10.8-10.3,14.7c0,5.4,4.4,9.5,10,9.5
		c22.6,0,38-47.1,38-53.8C77.6,55.1,76.4,53.7,74.8,53.3z M57.4,68.5c0-3.2,1.1-6.6,2.7-9.9c0.1-0.1,0.1-0.2,0.1-0.2
		c0,0,0-0.1,0.1-0.1c2.9-6,7.5-11.5,10.6-13.8c-0.4,2.2-1.7,5.4-4.3,8.2c-1.3,1.4-1.2,3.6,0.2,4.9c0.5,0.5,1.1,0.8,1.8,0.9
		C66,62.4,61.7,67.8,57.4,68.5z"/>
	<path class="st0" d="M191.3,53.5c3.1-5.2,4-11,2.7-14.1c-0.8-1.8-2.4-2.9-4.3-2.9c-6.1,0-12.8,8.7-14.7,11.3
		c-0.8,1.1-1.9,2.8-3.1,4.8c-0.1,0.1-0.1,0.2-0.2,0.2c-4.3,6.2-12.2,14.8-17.6,15.8c0.1-8.7,12.3-21.8,17-26.2c0,0,0,0,0,0
		c0.1-0.1,0.2-0.2,0.3-0.3c0.1-0.1,0.1-0.1,0.2-0.2c0.1-0.1,0.1-0.2,0.2-0.3c0-0.1,0.1-0.2,0.1-0.3c0-0.1,0.1-0.2,0.1-0.3
		c0-0.1,0.1-0.2,0.1-0.3c0-0.1,0-0.2,0-0.3c0-0.1,0-0.2,0-0.4c0,0,0,0,0-0.1c0-0.1,0-0.2,0-0.2c0-0.1,0-0.2,0-0.4
		c0-0.1-0.1-0.2-0.1-0.3c0-0.1-0.1-0.2-0.1-0.3c0-0.1-0.1-0.2-0.2-0.3c0-0.1-0.1-0.2-0.1-0.3c-0.1-0.1-0.2-0.2-0.2-0.3
		c0-0.1-0.1-0.1-0.1-0.2c0,0,0,0,0,0c-0.1-0.1-0.2-0.2-0.3-0.3c-0.1-0.1-0.1-0.1-0.2-0.2c-0.1-0.1-0.2-0.1-0.3-0.2
		c-0.1,0-0.2-0.1-0.3-0.1c-0.1,0-0.2-0.1-0.3-0.1c-0.1,0-0.2-0.1-0.3-0.1c-0.1,0-0.2,0-0.3,0c-0.1,0-0.2,0-0.4,0c0,0,0,0-0.1,0
		c-0.1,0-0.3,0-0.4,0c0,0-0.1,0-0.1,0c-5.7,0.5-14.6,8.1-26.7,20.7c0-0.1,0-0.2,0-0.3c3.8-6,8.4-11.7,10.9-14.5
		c1.3-1.4,1.2-3.7-0.3-4.9c-1.4-1.3-3.7-1.2-4.9,0.3c-1.4,1.6-10.6,12.1-15.6,22.7c-2.6,3.6-6.2,7.4-9.8,8
		c0.1-8.9,9.8-22.1,13.5-26.4c1.3-1.5,1.1-3.7-0.4-4.9c-1.5-1.3-3.7-1.1-4.9,0.4c-0.4,0.4-5.6,6.5-9.8,14.2
		c-4.7,6.6-13.2,15.8-18.6,16.8c0.1-8.7,12.3-21.8,17-26.2c0,0,0,0,0,0c0.1-0.1,0.2-0.2,0.3-0.3c0.1-0.1,0.1-0.1,0.2-0.2
		c0.1-0.1,0.1-0.2,0.2-0.3c0-0.1,0.1-0.2,0.1-0.3c0-0.1,0.1-0.2,0.1-0.3c0-0.1,0.1-0.2,0.1-0.3c0-0.1,0-0.2,0-0.3c0-0.1,0-0.2,0-0.4
		c0,0,0,0,0-0.1c0-0.1,0-0.2,0-0.2c0-0.1,0-0.2,0-0.4c0-0.1-0.1-0.2-0.1-0.3c0-0.1-0.1-0.2-0.1-0.3c0-0.1-0.1-0.2-0.2-0.3
		c0-0.1-0.1-0.2-0.1-0.3c-0.1-0.1-0.2-0.2-0.2-0.3c0-0.1-0.1-0.1-0.1-0.2c0,0,0,0,0,0c-0.1-0.1-0.2-0.2-0.3-0.3
		c-0.1-0.1-0.1-0.1-0.2-0.2c-0.1-0.1-0.2-0.1-0.3-0.2c-0.1-0.1-0.2-0.1-0.3-0.2c-0.1,0-0.2-0.1-0.3-0.1c-0.1,0-0.2-0.1-0.3-0.1
		c-0.1,0-0.2,0-0.3,0c-0.1,0-0.3,0-0.4,0c0,0,0,0-0.1,0c-0.1,0-0.3,0-0.4,0c0,0-0.1,0-0.1,0c-5.8,0.5-14.8,8.3-27.1,21.1
		c3.9-6.3,8.7-12.3,11.3-15.1c1.3-1.4,1.2-3.7-0.3-4.9c-1.4-1.3-3.7-1.2-4.9,0.3c-1.9,2.1-18.8,21.4-18.8,34.5
		c0,1.4,0.9,2.8,2.2,3.3c0.5,0.2,0.9,0.3,1.3,0.3c1.6,0,2.7-1.2,3.9-2.4c0.8-0.9,2-2.1,3.4-3.6c4.1-4.4,7.7-8.1,10.7-11.2
		c-1.8,3.7-2.7,7.1-2.7,10.2c0,4,2.6,6.9,6,6.9c4.7,0,9.8-3.3,14.1-7.2c0,0.1,0,0.2,0,0.3c0,4,2.6,6.9,6,6.9c2.6,0,5.2-0.8,7.7-2.4
		c0.3,1.1,1.1,1.9,2.1,2.4c0.5,0.2,0.9,0.3,1.3,0.3c1.6,0,2.7-1.2,3.9-2.4c0.8-0.9,2-2.1,3.4-3.6c4.1-4.4,7.7-8.1,10.7-11.2
		c-1.8,3.7-2.7,7.1-2.7,10.2c0,4,2.6,6.9,6,6.9c4.7,0,9.6-3.1,13.8-6.8c0.1,3.9,2.6,6.8,6,6.8c3.1,0,6.2-1.1,9.3-3.4
		c-1.3,3.2-2.9,6.8-4.7,10.3c-7.1,13.6-14.7,21-21.4,21c-1.7,0-3-1.1-3-2.5c0-6.3,11-11.1,14.8-12.2c1.9-0.6,2.9-2.5,2.3-4.4
		c-0.6-1.9-2.5-2.9-4.4-2.3c-0.2,0.1-4.8,1.5-9.4,4.3c-8.5,5.1-10.3,10.8-10.3,14.7c0,5.4,4.4,9.5,10,9.5c22.6,0,38-47.1,38-53.8
		C194.1,55.2,192.9,53.8,191.3,53.5z M173.9,68.7c0.1-9.1,8.6-20.5,13.5-24.1c-0.4,2.2-1.7,5.4-4.3,8.2c-1.3,1.4-1.2,3.6,0.2,4.9
		c0.5,0.5,1.2,0.8,1.8,0.9C182.5,62.6,178.2,68,173.9,68.7z"/>
	<ellipse transform="matrix(-0.5866 0.8099 -0.8099 -0.5866 116.2812 -1.357)" class="st0" cx="58.5" cy="29" rx="5.1" ry="3.9"/>
	<ellipse transform="matrix(-0.5866 0.8099 -0.8099 -0.5866 244.0013 -66.553)" class="st0" cx="139" cy="29" rx="5.1" ry="3.9"/>
</g>
<g>
	<path class="st0" d="M211.7,65c0.6,1.5,1.5,2.7,2.6,3.8c1.1,1.1,2.4,1.9,3.8,2.6s3,0.9,4.7,0.9c1.7,0,3.2-0.3,4.7-0.9
		c1.5-0.6,2.7-1.5,3.8-2.6c1.1-1.1,1.9-2.4,2.6-3.8s0.9-3,0.9-4.7v-24h2.4v24c0,2-0.4,3.9-1.1,5.6c-0.8,1.8-1.8,3.3-3.1,4.6
		c-1.3,1.3-2.8,2.3-4.6,3.1s-3.6,1.1-5.6,1.1c-2,0-3.9-0.4-5.6-1.1c-1.8-0.8-3.3-1.8-4.6-3.1s-2.3-2.8-3.1-4.6
		c-0.8-1.8-1.1-3.6-1.1-5.6v-24h2.4v24C210.8,62,211.1,63.5,211.7,65z"/>
	<path class="st0" d="M246.3,36.3h18.6c1.4,0,2.7,0.3,4,0.8c1.2,0.5,2.3,1.3,3.3,2.2c0.9,0.9,1.7,2,2.2,3.3c0.5,1.2,0.8,2.6,0.8,4
		s-0.3,2.7-0.8,4c-0.5,1.2-1.3,2.3-2.2,3.2c-0.9,0.9-2,1.6-3.3,2.2s-2.6,0.8-4,0.8h-16.2v18h-2.4V36.3z M248.7,38.7v15.6h16.2
		c1.1,0,2.1-0.2,3-0.6c0.9-0.4,1.8-1,2.5-1.7c0.7-0.7,1.3-1.5,1.7-2.5c0.4-0.9,0.6-2,0.6-3s-0.2-2.1-0.6-3c-0.4-0.9-1-1.8-1.7-2.5
		c-0.7-0.7-1.5-1.3-2.5-1.7c-0.9-0.4-2-0.6-3-0.6H248.7z"/>
</g>
</svg>
